<mxfile host="app.diagrams.net" agent="Mozilla/5.0 (Windows NT 10.0; Win64; x64) AppleWebKit/537.36 (KHTML, like Gecko) Chrome/136.0.0.0 Safari/537.36" version="27.1.1">
  <diagram name="Página-1" id="tvZUtpwPVwtuBz7CNE1b">
    <mxGraphModel dx="1593" dy="1282" grid="1" gridSize="10" guides="1" tooltips="1" connect="1" arrows="1" fold="1" page="1" pageScale="1" pageWidth="827" pageHeight="1169" math="0" shadow="0">
      <root>
        <mxCell id="0" />
        <mxCell id="1" parent="0" />
        <mxCell id="Mr1MeybWY62K4v-TNX2e-2" value="" style="strokeWidth=2;html=1;shape=mxgraph.flowchart.annotation_1;align=left;pointerEvents=1;" vertex="1" parent="1">
          <mxGeometry x="150" y="149.89" width="10" height="60" as="geometry" />
        </mxCell>
        <mxCell id="Mr1MeybWY62K4v-TNX2e-10" style="edgeStyle=orthogonalEdgeStyle;rounded=0;orthogonalLoop=1;jettySize=auto;html=1;entryX=0;entryY=0.5;entryDx=0;entryDy=0;" edge="1" parent="1" source="Mr1MeybWY62K4v-TNX2e-5" target="Mr1MeybWY62K4v-TNX2e-8">
          <mxGeometry relative="1" as="geometry" />
        </mxCell>
        <mxCell id="Mr1MeybWY62K4v-TNX2e-5" value="Captura de Dados do Sistema Físico" style="text;whiteSpace=wrap;align=center;verticalAlign=middle;" vertex="1" parent="1">
          <mxGeometry x="150" y="149.89" width="150" height="60" as="geometry" />
        </mxCell>
        <mxCell id="Mr1MeybWY62K4v-TNX2e-6" value="" style="strokeWidth=2;html=1;shape=mxgraph.flowchart.annotation_1;align=left;pointerEvents=1;rotation=-180;" vertex="1" parent="1">
          <mxGeometry x="290" y="149.89" width="10" height="60" as="geometry" />
        </mxCell>
        <mxCell id="Mr1MeybWY62K4v-TNX2e-7" value="" style="strokeWidth=2;html=1;shape=mxgraph.flowchart.annotation_1;align=left;pointerEvents=1;" vertex="1" parent="1">
          <mxGeometry x="349" y="149.89" width="10" height="60" as="geometry" />
        </mxCell>
        <mxCell id="Mr1MeybWY62K4v-TNX2e-8" value="Pré-processamento dos Dados" style="text;whiteSpace=wrap;align=center;verticalAlign=middle;" vertex="1" parent="1">
          <mxGeometry x="349" y="149.89" width="150" height="60" as="geometry" />
        </mxCell>
        <mxCell id="Mr1MeybWY62K4v-TNX2e-15" style="edgeStyle=orthogonalEdgeStyle;rounded=0;orthogonalLoop=1;jettySize=auto;html=1;entryX=0;entryY=0.5;entryDx=0;entryDy=0;" edge="1" parent="1" source="Mr1MeybWY62K4v-TNX2e-9" target="Mr1MeybWY62K4v-TNX2e-13">
          <mxGeometry relative="1" as="geometry" />
        </mxCell>
        <mxCell id="Mr1MeybWY62K4v-TNX2e-9" value="" style="strokeWidth=2;html=1;shape=mxgraph.flowchart.annotation_1;align=left;pointerEvents=1;rotation=-180;" vertex="1" parent="1">
          <mxGeometry x="489" y="149.89" width="10" height="60" as="geometry" />
        </mxCell>
        <mxCell id="Mr1MeybWY62K4v-TNX2e-12" value="" style="strokeWidth=2;html=1;shape=mxgraph.flowchart.annotation_1;align=left;pointerEvents=1;" vertex="1" parent="1">
          <mxGeometry x="550" y="149.89" width="10" height="60" as="geometry" />
        </mxCell>
        <mxCell id="Mr1MeybWY62K4v-TNX2e-13" value="Criação/Atualização de Eventos" style="text;whiteSpace=wrap;align=center;verticalAlign=middle;" vertex="1" parent="1">
          <mxGeometry x="550" y="149.89" width="150" height="60" as="geometry" />
        </mxCell>
        <mxCell id="Mr1MeybWY62K4v-TNX2e-14" value="" style="strokeWidth=2;html=1;shape=mxgraph.flowchart.annotation_1;align=left;pointerEvents=1;rotation=-180;" vertex="1" parent="1">
          <mxGeometry x="690" y="149.89" width="10" height="60" as="geometry" />
        </mxCell>
        <mxCell id="Mr1MeybWY62K4v-TNX2e-16" value="" style="strokeWidth=2;html=1;shape=mxgraph.flowchart.annotation_1;align=left;pointerEvents=1;" vertex="1" parent="1">
          <mxGeometry x="56" y="389.89" width="10" height="60" as="geometry" />
        </mxCell>
        <mxCell id="Mr1MeybWY62K4v-TNX2e-17" value="Integração de Dados com o Gêmeo Digital" style="text;whiteSpace=wrap;align=center;verticalAlign=middle;" vertex="1" parent="1">
          <mxGeometry x="66" y="389.89" width="130" height="60" as="geometry" />
        </mxCell>
        <mxCell id="Mr1MeybWY62K4v-TNX2e-18" value="" style="strokeWidth=2;html=1;shape=mxgraph.flowchart.annotation_1;align=left;pointerEvents=1;rotation=-180;" vertex="1" parent="1">
          <mxGeometry x="196" y="389.89" width="10" height="60" as="geometry" />
        </mxCell>
        <mxCell id="Mr1MeybWY62K4v-TNX2e-19" value="" style="strokeWidth=2;html=1;shape=mxgraph.flowchart.annotation_1;align=left;pointerEvents=1;" vertex="1" parent="1">
          <mxGeometry x="255" y="389.89" width="10" height="60" as="geometry" />
        </mxCell>
        <mxCell id="Mr1MeybWY62K4v-TNX2e-20" value="Sincronização do Estado do Gêmeo Digital" style="text;whiteSpace=wrap;align=center;verticalAlign=middle;" vertex="1" parent="1">
          <mxGeometry x="265" y="389.89" width="130" height="60" as="geometry" />
        </mxCell>
        <mxCell id="Mr1MeybWY62K4v-TNX2e-21" value="" style="strokeWidth=2;html=1;shape=mxgraph.flowchart.annotation_1;align=left;pointerEvents=1;rotation=-180;" vertex="1" parent="1">
          <mxGeometry x="395" y="389.89" width="10" height="60" as="geometry" />
        </mxCell>
        <mxCell id="Mr1MeybWY62K4v-TNX2e-22" style="edgeStyle=orthogonalEdgeStyle;rounded=0;orthogonalLoop=1;jettySize=auto;html=1;entryX=0;entryY=0.5;entryDx=0;entryDy=0;entryPerimeter=0;" edge="1" parent="1" source="Mr1MeybWY62K4v-TNX2e-18" target="Mr1MeybWY62K4v-TNX2e-19">
          <mxGeometry relative="1" as="geometry" />
        </mxCell>
        <mxCell id="Mr1MeybWY62K4v-TNX2e-23" value="" style="strokeWidth=2;html=1;shape=mxgraph.flowchart.annotation_1;align=left;pointerEvents=1;" vertex="1" parent="1">
          <mxGeometry x="456" y="389.89" width="10" height="60" as="geometry" />
        </mxCell>
        <mxCell id="Mr1MeybWY62K4v-TNX2e-24" value="Monitoramento do Comportamento Real" style="text;whiteSpace=wrap;align=center;verticalAlign=middle;" vertex="1" parent="1">
          <mxGeometry x="466" y="389.89" width="130" height="60" as="geometry" />
        </mxCell>
        <mxCell id="Mr1MeybWY62K4v-TNX2e-25" value="" style="strokeWidth=2;html=1;shape=mxgraph.flowchart.annotation_1;align=left;pointerEvents=1;rotation=-180;" vertex="1" parent="1">
          <mxGeometry x="596" y="389.89" width="10" height="60" as="geometry" />
        </mxCell>
        <mxCell id="Mr1MeybWY62K4v-TNX2e-26" style="edgeStyle=orthogonalEdgeStyle;rounded=0;orthogonalLoop=1;jettySize=auto;html=1;entryX=0;entryY=0.5;entryDx=0;entryDy=0;entryPerimeter=0;" edge="1" parent="1" source="Mr1MeybWY62K4v-TNX2e-21" target="Mr1MeybWY62K4v-TNX2e-23">
          <mxGeometry relative="1" as="geometry" />
        </mxCell>
        <mxCell id="Mr1MeybWY62K4v-TNX2e-27" value="" style="strokeWidth=2;html=1;shape=mxgraph.flowchart.annotation_1;align=left;pointerEvents=1;" vertex="1" parent="1">
          <mxGeometry x="656" y="389.89" width="10" height="60" as="geometry" />
        </mxCell>
        <mxCell id="Mr1MeybWY62K4v-TNX2e-28" value="Comparação entre Comportamento Esperado e Real" style="text;whiteSpace=wrap;align=center;verticalAlign=middle;" vertex="1" parent="1">
          <mxGeometry x="666" y="389.89" width="130" height="60" as="geometry" />
        </mxCell>
        <mxCell id="Mr1MeybWY62K4v-TNX2e-29" value="" style="strokeWidth=2;html=1;shape=mxgraph.flowchart.annotation_1;align=left;pointerEvents=1;rotation=-180;" vertex="1" parent="1">
          <mxGeometry x="796" y="389.89" width="10" height="60" as="geometry" />
        </mxCell>
        <mxCell id="Mr1MeybWY62K4v-TNX2e-30" value="" style="strokeWidth=2;html=1;shape=mxgraph.flowchart.annotation_1;align=left;pointerEvents=1;" vertex="1" parent="1">
          <mxGeometry x="44.25" y="609.89" width="10" height="60" as="geometry" />
        </mxCell>
        <mxCell id="Mr1MeybWY62K4v-TNX2e-31" value="Análise dos Desvios" style="text;whiteSpace=wrap;align=center;verticalAlign=middle;" vertex="1" parent="1">
          <mxGeometry x="54.25" y="609.89" width="130" height="60" as="geometry" />
        </mxCell>
        <mxCell id="Mr1MeybWY62K4v-TNX2e-32" value="" style="strokeWidth=2;html=1;shape=mxgraph.flowchart.annotation_1;align=left;pointerEvents=1;rotation=-180;" vertex="1" parent="1">
          <mxGeometry x="184.25" y="609.89" width="10" height="60" as="geometry" />
        </mxCell>
        <mxCell id="Mr1MeybWY62K4v-TNX2e-34" value="" style="strokeWidth=2;html=1;shape=mxgraph.flowchart.annotation_1;align=left;pointerEvents=1;" vertex="1" parent="1">
          <mxGeometry x="245.25" y="609.89" width="10" height="60" as="geometry" />
        </mxCell>
        <mxCell id="Mr1MeybWY62K4v-TNX2e-35" value="Detecção de Desvios/Falhas" style="text;whiteSpace=wrap;align=center;verticalAlign=middle;" vertex="1" parent="1">
          <mxGeometry x="255.25" y="609.89" width="130" height="60" as="geometry" />
        </mxCell>
        <mxCell id="Mr1MeybWY62K4v-TNX2e-36" value="" style="strokeWidth=2;html=1;shape=mxgraph.flowchart.annotation_1;align=left;pointerEvents=1;rotation=-180;" vertex="1" parent="1">
          <mxGeometry x="385.25" y="609.89" width="10" height="60" as="geometry" />
        </mxCell>
        <mxCell id="Mr1MeybWY62K4v-TNX2e-37" style="edgeStyle=orthogonalEdgeStyle;rounded=0;orthogonalLoop=1;jettySize=auto;html=1;entryX=0;entryY=0.5;entryDx=0;entryDy=0;entryPerimeter=0;" edge="1" parent="1" source="Mr1MeybWY62K4v-TNX2e-32" target="Mr1MeybWY62K4v-TNX2e-34">
          <mxGeometry relative="1" as="geometry" />
        </mxCell>
        <mxCell id="Mr1MeybWY62K4v-TNX2e-38" value="" style="strokeWidth=2;html=1;shape=mxgraph.flowchart.annotation_1;align=left;pointerEvents=1;" vertex="1" parent="1">
          <mxGeometry x="348" y="39.889999999999986" width="10" height="60" as="geometry" />
        </mxCell>
        <mxCell id="Mr1MeybWY62K4v-TNX2e-39" value="Análise de Dados do Sistema Físico" style="text;whiteSpace=wrap;align=center;verticalAlign=middle;" vertex="1" parent="1">
          <mxGeometry x="348" y="39.889999999999986" width="150" height="60" as="geometry" />
        </mxCell>
        <mxCell id="Mr1MeybWY62K4v-TNX2e-40" value="" style="strokeWidth=2;html=1;shape=mxgraph.flowchart.annotation_1;align=left;pointerEvents=1;rotation=-180;" vertex="1" parent="1">
          <mxGeometry x="488" y="39.889999999999986" width="10" height="60" as="geometry" />
        </mxCell>
        <mxCell id="Mr1MeybWY62K4v-TNX2e-41" value="" style="endArrow=none;dashed=1;html=1;rounded=0;entryX=0;entryY=1;entryDx=0;entryDy=0;entryPerimeter=0;exitX=0.5;exitY=0;exitDx=0;exitDy=0;exitPerimeter=0;" edge="1" parent="1" source="Mr1MeybWY62K4v-TNX2e-2" target="Mr1MeybWY62K4v-TNX2e-38">
          <mxGeometry width="50" height="50" relative="1" as="geometry">
            <mxPoint x="160" y="89.88999999999999" as="sourcePoint" />
            <mxPoint x="210" y="39.889999999999986" as="targetPoint" />
          </mxGeometry>
        </mxCell>
        <mxCell id="Mr1MeybWY62K4v-TNX2e-42" value="" style="endArrow=none;dashed=1;html=1;rounded=0;entryX=1;entryY=1;entryDx=0;entryDy=0;entryPerimeter=0;exitX=0;exitY=0;exitDx=0;exitDy=0;exitPerimeter=0;" edge="1" parent="1" source="Mr1MeybWY62K4v-TNX2e-40" target="Mr1MeybWY62K4v-TNX2e-14">
          <mxGeometry width="50" height="50" relative="1" as="geometry">
            <mxPoint x="150" y="329.89" as="sourcePoint" />
            <mxPoint x="344" y="219.89" as="targetPoint" />
          </mxGeometry>
        </mxCell>
        <mxCell id="Mr1MeybWY62K4v-TNX2e-43" value="" style="strokeWidth=2;html=1;shape=mxgraph.flowchart.annotation_1;align=left;pointerEvents=1;" vertex="1" parent="1">
          <mxGeometry x="355" y="279.89" width="10" height="60" as="geometry" />
        </mxCell>
        <mxCell id="Mr1MeybWY62K4v-TNX2e-44" value="Acesso ao Gêmeo Digital" style="text;whiteSpace=wrap;align=center;verticalAlign=middle;" vertex="1" parent="1">
          <mxGeometry x="356" y="279.89" width="150" height="60" as="geometry" />
        </mxCell>
        <mxCell id="Mr1MeybWY62K4v-TNX2e-45" value="" style="strokeWidth=2;html=1;shape=mxgraph.flowchart.annotation_1;align=left;pointerEvents=1;rotation=-180;" vertex="1" parent="1">
          <mxGeometry x="495" y="279.89" width="10" height="60" as="geometry" />
        </mxCell>
        <mxCell id="Mr1MeybWY62K4v-TNX2e-46" value="" style="endArrow=none;dashed=1;html=1;rounded=0;entryX=0;entryY=1;entryDx=0;entryDy=0;entryPerimeter=0;exitX=1;exitY=0;exitDx=0;exitDy=0;exitPerimeter=0;" edge="1" parent="1" source="Mr1MeybWY62K4v-TNX2e-16" target="Mr1MeybWY62K4v-TNX2e-43">
          <mxGeometry width="50" height="50" relative="1" as="geometry">
            <mxPoint x="-100" y="369.89" as="sourcePoint" />
            <mxPoint x="92" y="449.89" as="targetPoint" />
          </mxGeometry>
        </mxCell>
        <mxCell id="Mr1MeybWY62K4v-TNX2e-47" value="" style="endArrow=none;dashed=1;html=1;rounded=0;entryX=1;entryY=1;entryDx=0;entryDy=0;exitX=0;exitY=0;exitDx=0;exitDy=0;exitPerimeter=0;entryPerimeter=0;" edge="1" parent="1" source="Mr1MeybWY62K4v-TNX2e-45" target="Mr1MeybWY62K4v-TNX2e-29">
          <mxGeometry width="50" height="50" relative="1" as="geometry">
            <mxPoint x="530" y="579.89" as="sourcePoint" />
            <mxPoint x="739" y="529.89" as="targetPoint" />
          </mxGeometry>
        </mxCell>
        <mxCell id="Mr1MeybWY62K4v-TNX2e-49" style="edgeStyle=orthogonalEdgeStyle;rounded=0;orthogonalLoop=1;jettySize=auto;html=1;entryX=0;entryY=0.5;entryDx=0;entryDy=0;entryPerimeter=0;" edge="1" parent="1" source="Mr1MeybWY62K4v-TNX2e-40" target="Mr1MeybWY62K4v-TNX2e-43">
          <mxGeometry relative="1" as="geometry">
            <Array as="points">
              <mxPoint x="840" y="70" />
              <mxPoint x="840" y="240" />
              <mxPoint x="40" y="240" />
              <mxPoint x="40" y="310" />
            </Array>
          </mxGeometry>
        </mxCell>
        <mxCell id="Mr1MeybWY62K4v-TNX2e-50" value="" style="strokeWidth=2;html=1;shape=mxgraph.flowchart.annotation_1;align=left;pointerEvents=1;fontColor=light-dark(#000000,#F60F0F);strokeColor=light-dark(#000000,#FF0606);" vertex="1" parent="1">
          <mxGeometry x="850" y="119.99999999999999" width="10" height="60" as="geometry" />
        </mxCell>
        <mxCell id="Mr1MeybWY62K4v-TNX2e-54" style="edgeStyle=orthogonalEdgeStyle;rounded=0;orthogonalLoop=1;jettySize=auto;html=1;entryX=0.5;entryY=0;entryDx=0;entryDy=0;strokeColor=light-dark(#000000,#F60F0F);exitX=0.5;exitY=0;exitDx=0;exitDy=0;" edge="1" parent="1" source="Mr1MeybWY62K4v-TNX2e-51" target="Mr1MeybWY62K4v-TNX2e-39">
          <mxGeometry relative="1" as="geometry" />
        </mxCell>
        <mxCell id="Mr1MeybWY62K4v-TNX2e-51" value="R1 - Sincronização em Nuvem" style="text;whiteSpace=wrap;align=center;verticalAlign=middle;fontColor=light-dark(#000000,#F60F0F);strokeColor=none;" vertex="1" parent="1">
          <mxGeometry x="860" y="120" width="70" height="60" as="geometry" />
        </mxCell>
        <mxCell id="Mr1MeybWY62K4v-TNX2e-52" value="" style="strokeWidth=2;html=1;shape=mxgraph.flowchart.annotation_1;align=left;pointerEvents=1;rotation=-180;fontColor=light-dark(#000000,#F60F0F);strokeColor=light-dark(#000000,#FF0606);" vertex="1" parent="1">
          <mxGeometry x="930" y="119.99999999999999" width="10" height="60" as="geometry" />
        </mxCell>
        <mxCell id="Mr1MeybWY62K4v-TNX2e-53" style="edgeStyle=orthogonalEdgeStyle;rounded=0;orthogonalLoop=1;jettySize=auto;html=1;entryX=0.5;entryY=1;entryDx=0;entryDy=0;strokeColor=light-dark(#000000,#F60F0F);exitX=0.5;exitY=0;exitDx=0;exitDy=0;" edge="1" parent="1" source="Mr1MeybWY62K4v-TNX2e-44" target="Mr1MeybWY62K4v-TNX2e-51">
          <mxGeometry relative="1" as="geometry">
            <Array as="points">
              <mxPoint x="431" y="260" />
              <mxPoint x="895" y="260" />
            </Array>
          </mxGeometry>
        </mxCell>
        <mxCell id="Mr1MeybWY62K4v-TNX2e-55" style="edgeStyle=orthogonalEdgeStyle;rounded=0;orthogonalLoop=1;jettySize=auto;html=1;entryX=0;entryY=0.5;entryDx=0;entryDy=0;entryPerimeter=0;" edge="1" parent="1" source="Mr1MeybWY62K4v-TNX2e-25" target="Mr1MeybWY62K4v-TNX2e-27">
          <mxGeometry relative="1" as="geometry" />
        </mxCell>
        <mxCell id="Mr1MeybWY62K4v-TNX2e-57" value="" style="strokeWidth=2;html=1;shape=mxgraph.flowchart.annotation_1;align=left;pointerEvents=1;" vertex="1" parent="1">
          <mxGeometry x="450.75" y="609.89" width="10" height="60" as="geometry" />
        </mxCell>
        <mxCell id="Mr1MeybWY62K4v-TNX2e-58" value="Diagnóstico da Falha" style="text;whiteSpace=wrap;align=center;verticalAlign=middle;" vertex="1" parent="1">
          <mxGeometry x="460.75" y="609.89" width="130" height="60" as="geometry" />
        </mxCell>
        <mxCell id="Mr1MeybWY62K4v-TNX2e-59" value="" style="strokeWidth=2;html=1;shape=mxgraph.flowchart.annotation_1;align=left;pointerEvents=1;rotation=-180;" vertex="1" parent="1">
          <mxGeometry x="590.75" y="609.89" width="10" height="60" as="geometry" />
        </mxCell>
        <mxCell id="Mr1MeybWY62K4v-TNX2e-60" value="" style="strokeWidth=2;html=1;shape=mxgraph.flowchart.annotation_1;align=left;pointerEvents=1;" vertex="1" parent="1">
          <mxGeometry x="651.75" y="609.89" width="10" height="60" as="geometry" />
        </mxCell>
        <mxCell id="Mr1MeybWY62K4v-TNX2e-61" value="Relatório/Alerta de Falha" style="text;whiteSpace=wrap;align=center;verticalAlign=middle;" vertex="1" parent="1">
          <mxGeometry x="661.75" y="609.89" width="130" height="60" as="geometry" />
        </mxCell>
        <mxCell id="Mr1MeybWY62K4v-TNX2e-62" value="" style="strokeWidth=2;html=1;shape=mxgraph.flowchart.annotation_1;align=left;pointerEvents=1;rotation=-180;" vertex="1" parent="1">
          <mxGeometry x="791.75" y="609.89" width="10" height="60" as="geometry" />
        </mxCell>
        <mxCell id="Mr1MeybWY62K4v-TNX2e-63" style="edgeStyle=orthogonalEdgeStyle;rounded=0;orthogonalLoop=1;jettySize=auto;html=1;entryX=0;entryY=0.5;entryDx=0;entryDy=0;entryPerimeter=0;" edge="1" parent="1" source="Mr1MeybWY62K4v-TNX2e-59" target="Mr1MeybWY62K4v-TNX2e-60">
          <mxGeometry relative="1" as="geometry" />
        </mxCell>
        <mxCell id="Mr1MeybWY62K4v-TNX2e-64" style="edgeStyle=orthogonalEdgeStyle;rounded=0;orthogonalLoop=1;jettySize=auto;html=1;entryX=0;entryY=0.5;entryDx=0;entryDy=0;entryPerimeter=0;exitX=0;exitY=0.5;exitDx=0;exitDy=0;exitPerimeter=0;" edge="1" parent="1" source="Mr1MeybWY62K4v-TNX2e-36" target="Mr1MeybWY62K4v-TNX2e-57">
          <mxGeometry relative="1" as="geometry" />
        </mxCell>
        <mxCell id="Mr1MeybWY62K4v-TNX2e-65" value="" style="strokeWidth=2;html=1;shape=mxgraph.flowchart.annotation_1;align=left;pointerEvents=1;" vertex="1" parent="1">
          <mxGeometry x="350.75" y="499.89" width="10" height="60" as="geometry" />
        </mxCell>
        <mxCell id="Mr1MeybWY62K4v-TNX2e-66" value="Tratamento de Falhas" style="text;whiteSpace=wrap;align=center;verticalAlign=middle;" vertex="1" parent="1">
          <mxGeometry x="360.75" y="499.89" width="130" height="60" as="geometry" />
        </mxCell>
        <mxCell id="Mr1MeybWY62K4v-TNX2e-67" value="" style="strokeWidth=2;html=1;shape=mxgraph.flowchart.annotation_1;align=left;pointerEvents=1;rotation=-180;" vertex="1" parent="1">
          <mxGeometry x="490.75" y="499.89" width="10" height="60" as="geometry" />
        </mxCell>
        <mxCell id="Mr1MeybWY62K4v-TNX2e-68" value="" style="endArrow=none;dashed=1;html=1;rounded=0;entryX=0;entryY=1;entryDx=0;entryDy=0;entryPerimeter=0;exitX=0;exitY=0;exitDx=0;exitDy=0;" edge="1" parent="1" source="Mr1MeybWY62K4v-TNX2e-31" target="Mr1MeybWY62K4v-TNX2e-65">
          <mxGeometry width="50" height="50" relative="1" as="geometry">
            <mxPoint x="264.75" y="369.89" as="sourcePoint" />
            <mxPoint x="553.75" y="319.89" as="targetPoint" />
          </mxGeometry>
        </mxCell>
        <mxCell id="Mr1MeybWY62K4v-TNX2e-69" value="" style="endArrow=none;dashed=1;html=1;rounded=0;entryX=1;entryY=1;entryDx=0;entryDy=0;entryPerimeter=0;exitX=0;exitY=0;exitDx=0;exitDy=0;exitPerimeter=0;" edge="1" parent="1" source="Mr1MeybWY62K4v-TNX2e-67" target="Mr1MeybWY62K4v-TNX2e-62">
          <mxGeometry width="50" height="50" relative="1" as="geometry">
            <mxPoint x="324.75" y="639.89" as="sourcePoint" />
            <mxPoint x="620.75" y="589.89" as="targetPoint" />
          </mxGeometry>
        </mxCell>
        <mxCell id="Mr1MeybWY62K4v-TNX2e-70" style="edgeStyle=orthogonalEdgeStyle;rounded=0;orthogonalLoop=1;jettySize=auto;html=1;entryX=0;entryY=0.5;entryDx=0;entryDy=0;entryPerimeter=0;" edge="1" parent="1" source="Mr1MeybWY62K4v-TNX2e-44" target="Mr1MeybWY62K4v-TNX2e-65">
          <mxGeometry relative="1" as="geometry">
            <Array as="points">
              <mxPoint x="840" y="310" />
              <mxPoint x="840" y="480" />
              <mxPoint x="40" y="480" />
              <mxPoint x="40" y="530" />
            </Array>
          </mxGeometry>
        </mxCell>
      </root>
    </mxGraphModel>
  </diagram>
</mxfile>
